<?xml version="1.0" standalone="no"?>
<!DOCTYPE svg PUBLIC "-//W3C//DTD SVG 20010904//EN"
 "http://www.w3.org/TR/2001/REC-SVG-20010904/DTD/svg10.dtd">
<svg version="1.0" xmlns="http://www.w3.org/2000/svg"
 width="128.000000pt" height="128.000000pt" viewBox="0 0 128.000000 128.000000"
 preserveAspectRatio="xMidYMid meet">

<g transform="translate(0.000000,128.000000) scale(0.100000,-0.100000)"
fill="currentColor" stroke="none">
<path fill="currentColor" d="M500 1264 c-234 -50 -436 -254 -485 -489 -95 -454 306 -855 760 -760
238 50 440 252 490 490 95 456 -309 857 -765 759z m274 -104 c43 -11 103 -34
134 -52 71 -40 160 -129 200 -200 39 -68 72 -191 72 -268 0 -77 -33 -200 -72
-268 -40 -71 -129 -160 -200 -200 -68 -39 -191 -72 -267 -72 -186 1 -378 112
-469 272 -39 68 -72 191 -72 268 0 77 33 200 72 269 44 77 140 169 218 208
127 63 251 77 384 43z"/>
<path fill="currentColor" d="M327 762 c-15 -15 -27 -32 -27 -38 0 -5 77 -86 170 -179 l170 -170
170 170 c94 93 170 174 170 179 0 14 -51 66 -64 66 -6 0 -70 -60 -143 -132
l-133 -133 -133 133 c-73 72 -137 132 -143 132 -6 0 -22 -13 -37 -28z"/>
</g>
</svg>