{
    "asset": {
        "generator": "glTF-Transform v3.3.1",
        "version": "2.0",
        "extras": {
            "author": "Jhimwell Vizconde (https://sketchfab.com/jhimwell0801)",
            "license": "CC-BY-4.0 (http://creativecommons.org/licenses/by/4.0/)",
            "source": "https://sketchfab.com/3d-models/one-piece-logo-5e22b178523349b19aae58c4b45790c2",
            "title": "One Piece Logo"
        }
    },
    "accessors": [
        {
            "type": "VEC3",
            "componentType": 5126,
            "count": 14485,
            "max": [1.9548300504684448, 1.9124900102615356, 0.2010200023651123],
            "min": [-1.957759976387024, -1.500249981880188, 0],
            "bufferView": 0,
            "byteOffset": 0
        },
        {
            "type": "VEC3",
            "componentType": 5126,
            "count": 14485,
            "bufferView": 0,
            "byteOffset": 12
        },
        {
            "type": "VEC3",
            "componentType": 5126,
            "count": 24,
            "max": [1.016800045967102, 0.9672600030899048, 0.13143999874591827],
            "min": [-1.0058300495147705, 0.7595900297164917, 0.063680000603199],
            "bufferView": 1,
            "byteOffset": 0
        },
        {
            "type": "VEC3",
            "componentType": 5126,
            "count": 24,
            "bufferView": 1,
            "byteOffset": 12
        },
        {
            "type": "VEC3",
            "componentType": 5126,
            "count": 301,
            "max": [1.5978200435638428, 1.6494200229644775, 0.13401000201702118],
            "min": [-1.5602999925613403, 0.576170027256012, 0.06701000034809113],
            "bufferView": 2,
            "byteOffset": 0
        },
        {
            "type": "VEC3",
            "componentType": 5126,
            "count": 301,
            "bufferView": 2,
            "byteOffset": 12
        },
        {
            "type": "VEC3",
            "componentType": 5126,
            "count": 2820,
            "max": [1.8724299669265747, 1.8291200399398804, 0.13401000201702118],
            "min": [-1.876099944114685, -1.416849970817566, 0.06701000034809113],
            "bufferView": 3,
            "byteOffset": 0
        },
        {
            "type": "VEC3",
            "componentType": 5126,
            "count": 2820,
            "bufferView": 3,
            "byteOffset": 12
        },
        {
            "type": "SCALAR",
            "componentType": 5125,
            "count": 42588,
            "bufferView": 4,
            "byteOffset": 0
        },
        {
            "type": "SCALAR",
            "componentType": 5125,
            "count": 36,
            "bufferView": 4,
            "byteOffset": 170352
        },
        {
            "type": "SCALAR",
            "componentType": 5125,
            "count": 879,
            "bufferView": 4,
            "byteOffset": 170496
        },
        {
            "type": "SCALAR",
            "componentType": 5125,
            "count": 8292,
            "bufferView": 4,
            "byteOffset": 174012
        }
    ],
    "bufferViews": [
        {
            "buffer": 0,
            "byteOffset": 0,
            "byteLength": 347640,
            "byteStride": 24,
            "target": 34962
        },
        {
            "buffer": 0,
            "byteOffset": 347640,
            "byteLength": 576,
            "byteStride": 24,
            "target": 34962
        },
        {
            "buffer": 0,
            "byteOffset": 348216,
            "byteLength": 7224,
            "byteStride": 24,
            "target": 34962
        },
        {
            "buffer": 0,
            "byteOffset": 355440,
            "byteLength": 67680,
            "byteStride": 24,
            "target": 34962
        },
        {
            "buffer": 0,
            "byteOffset": 423120,
            "byteLength": 207180,
            "target": 34963
        }
    ],
    "buffers": [
        {
            "uri": "scene.bin",
            "byteLength": 630300
        }
    ],
    "materials": [
        {
            "name": "Material",
            "doubleSided": true,
            "pbrMetallicRoughness": {
                "baseColorFactor": [
                    0.007726100576177697, 0.007726100576177697, 0.007726100576177697, 1
                ],
                "roughnessFactor": 0.5348704268292683,
                "metallicFactor": 0
            },
            "extensions": {
                "KHR_materials_ior": {
                    "ior": 1000
                },
                "KHR_materials_specular": {
                    "specularColorFactor": [0, 0, 0]
                }
            }
        },
        {
            "name": "Material.003",
            "doubleSided": true,
            "pbrMetallicRoughness": {
                "baseColorFactor": [0.7991027380144088, 0.010960094006488251, 0, 1],
                "roughnessFactor": 0.6297637195121951,
                "metallicFactor": 0
            },
            "extensions": {
                "KHR_materials_ior": {
                    "ior": 1000
                },
                "KHR_materials_specular": {
                    "specularColorFactor": [0.05, 0.05, 0.05]
                }
            }
        },
        {
            "name": "Material.001",
            "doubleSided": true,
            "pbrMetallicRoughness": {
                "baseColorFactor": [1, 0.8395802381694395, 0.003817572869280599, 1],
                "roughnessFactor": 0.2604801829268293,
                "metallicFactor": 0
            },
            "extensions": {
                "KHR_materials_ior": {
                    "ior": 1000
                },
                "KHR_materials_specular": {
                    "specularColorFactor": [
                        0.09927591463414634, 0.09927591463414634, 0.09927591463414634
                    ]
                }
            }
        },
        {
            "name": "Material.002",
            "doubleSided": true,
            "pbrMetallicRoughness": {
                "roughnessFactor": 0.15415396341463417,
                "metallicFactor": 0
            },
            "extensions": {
                "KHR_materials_ior": {
                    "ior": 1000
                },
                "KHR_materials_specular": {
                    "specularColorFactor": [
                        0.14283536798207136, 0.14283536798207136, 0.14283536798207136
                    ]
                }
            }
        }
    ],
    "meshes": [
        {
            "name": "Curve_0",
            "primitives": [
                {
                    "attributes": {
                        "NORMAL": 1,
                        "POSITION": 0
                    },
                    "mode": 4,
                    "material": 0,
                    "indices": 8
                }
            ]
        },
        {
            "name": "Curve_1",
            "primitives": [
                {
                    "attributes": {
                        "NORMAL": 3,
                        "POSITION": 2
                    },
                    "mode": 4,
                    "material": 1,
                    "indices": 9
                }
            ]
        },
        {
            "name": "Curve_2",
            "primitives": [
                {
                    "attributes": {
                        "NORMAL": 5,
                        "POSITION": 4
                    },
                    "mode": 4,
                    "material": 2,
                    "indices": 10
                }
            ]
        },
        {
            "name": "Curve_3",
            "primitives": [
                {
                    "attributes": {
                        "NORMAL": 7,
                        "POSITION": 6
                    },
                    "mode": 4,
                    "material": 3,
                    "indices": 11
                }
            ]
        }
    ],
    "nodes": [
        {
            "name": "Sketchfab_model",
            "rotation": [-0.7071067811865475, 0, 0, 0.7071067811865476],
            "children": [1]
        },
        {
            "name": "Root",
            "children": [2, 7]
        },
        {
            "name": "Curve",
            "translation": [-0.005490000000000001, -0.05068000000000001, 0],
            "children": [3, 4, 5, 6]
        },
        {
            "name": "Curve_0",
            "mesh": 0
        },
        {
            "name": "Curve_1",
            "mesh": 1
        },
        {
            "name": "Curve_2",
            "mesh": 2
        },
        {
            "name": "Curve_3",
            "mesh": 3
        },
        {
            "name": "Hemi",
            "translation": [0, 0, 5.03708],
            "children": [8]
        },
        {
            "name": "Hemi"
        }
    ],
    "scenes": [
        {
            "name": "Sketchfab_Scene",
            "nodes": [0]
        }
    ],
    "scene": 0,
    "extensionsUsed": ["KHR_materials_ior", "KHR_materials_specular"]
}
